# xmcd CD database file
#
# Track frame offsets:
#	185
#	11288
#	22325
#	35208
#	47865
#	58178
#	69403
#	82235
#	94078
#	107495
#	119215
#	129915
#	143540
#	156493
#	169870
#	179833
#	195335
#	208413
#
# Disc length: 2967 seconds
#
# Revision: 1
# Processed by: cddbd v1.5.2PL0 Copyright (c) Steve Scherf et al.
# Submitted via: CDex 1.70beta2
#
DISCID=120b9512
DTITLE=Howlin' Wolf - The Best of Howlin' Wolf - Blues Legends
DYEAR=1900
DGENRE=Blues
TTITLE0=howlin' wolf - the red rooster
TTITLE1=howlin' wolf - wang dang doodle
TTITLE2=howlin' wolf - back door man
TTITLE3=howlin' wolf - spoonful
TTITLE4=howlin' wolf - shake for me
TTITLE5=howlin' wolf - you'll be mine
TTITLE6=howlin' wolf - killing floor
TTITLE7=howlin' wolf - built for comfort
TTITLE8=howlin' wolf - moanin' at midnight
TTITLE9=howlin' wolf - howlin' for my darling
TTITLE10=howlin' wolf - who's been talkin'
TTITLE11=howlin' wolf - highway 49
TTITLE12=howlin' wolf - i ain't superstitious
TTITLE13=howlin' wolf - tell me
TTITLE14=howlin' wolf - down in the bottom
TTITLE15=howlin' wolf - goin' down slow
TTITLE16=howlin' wolf - evil
TTITLE17=howlin' wolf - ridin' In The moonlight
EXTD=
EXTT0=
EXTT1=
EXTT2=
EXTT3=
EXTT4=
EXTT5=
EXTT6=
EXTT7=
EXTT8=
EXTT9=
EXTT10=
EXTT11=
EXTT12=
EXTT13=
EXTT14=
EXTT15=
EXTT16=
EXTT17=
PLAYORDER=
